<svg viewBox="0 0 200 51.77" xmlns="http://www.w3.org/2000/svg"><g fill="#fff"><path d="m73.1 12.27-5.1 11.14h-3.19l-5.15-11.14h2.72l4 9.21 4-9.21z"/><path d="m84.15 23.41h-9.93v-11.14h9.78v2h-7.22v2.47h6.76v2h-6.76v2.76h7.37z"/><path d="m94.87 23.41-2.35-3.77h-4.06v3.77h-2.56v-11.14h6.87c3 0 4.59 1.45 4.59 3.69a3.19 3.19 0 0 1 -2.29 3.31l2.65 4.14zm-6.41-5.72h4.22c1.56 0 2.07-.81 2.07-1.73s-.48-1.72-2.07-1.72h-4.22z"/><path d="m109.2 14.24h-4.2v9.17h-2.56v-9.17h-4.24v-2h11z"/><path d="m113.35 12.27v11.14h-2.56v-11.14z"/><path d="m124.86 19h2.65c-.52 3.31-3.34 4.65-6.24 4.65-3.21 0-6.33-1.63-6.33-5.81s3.12-5.8 6.33-5.8c2.9 0 5.72 1.34 6.24 4.65h-2.65a3.28 3.28 0 0 0 -3.59-2.7c-2.67 0-3.7 1.7-3.7 3.85s1 3.86 3.7 3.86a3.28 3.28 0 0 0 3.59-2.7z"/><path d="m137.14 21.23h-6.14l-.95 2.18h-2.73l5.16-11.14h3.15l5.14 11.14h-2.72zm-.86-2-2.19-5.06-2.2 5.06z"/><path d="m151.7 23.41h-9.79v-11.14h2.58v9.16h7.21z"/><path d="m167.7 23.41h-9.79v-11.14h2.58v9.16h7.21z"/><path d="m172 12.27v11.14h-2.56v-11.14z"/><path d="m185.85 12.27v11.14h-2.85l-6.17-8v8h-2.56v-11.14h2.86l6.17 8v-8z"/><path d="m193 18.25-2.4 2.18v3h-2.56v-11.16h2.56v5.27l5.65-5.27h3.33l-4.78 4.34 5 6.8h-3z"/><path d="m63.74 30.33h.43v8.67h-.43z"/><path d="m74 30.33v8.67h-.37l-6.17-7.94v7.94h-.46v-8.67h.39l6.15 7.93v-7.93z"/><path d="m85.23 34.93a4.27 4.27 0 0 1 -4.52 4.18 4.45 4.45 0 1 1 0-8.89 4.31 4.31 0 0 1 4.37 3.05h-.44a3.89 3.89 0 0 0 -3.92-2.65 4 4 0 0 0 -4.16 4.05 3.93 3.93 0 0 0 4.16 4 3.83 3.83 0 0 0 4.06-3.39h-4.52v-.39z"/><path d="m92.41 38.6v.4h-5.1v-8.67h5v.39h-4.57v3.56h4.18v.38h-4.18v3.94z"/><path d="m101.4 30.33v8.67h-.4l-6.17-7.94v7.94h-.42v-8.67h.39l6.2 7.93v-7.93z"/><path d="m104.23 30.33h.43v8.67h-.43z"/><path d="m112.59 38.6v.4h-5.1v-8.67h5v.39h-4.52v3.56h4.18v.38h-4.18v3.94z"/><path d="m118.35 35.22 2.4 3.77h-.49l-2.39-3.75h-2.82v3.76h-.43v-8.67h3.38a2.56 2.56 0 0 1 2.8 2.46 2.49 2.49 0 0 1 -2.45 2.43zm-3.3-.37h2.89a2.09 2.09 0 1 0 0-4.13h-2.89z"/><path d="m122.94 30.33h.43v8.67h-.43z"/><path d="m131.78 36.49h-5.07l-1.13 2.51h-.46l3.9-8.66h.37l4 8.66h-.46zm-4.9-.39h4.73l-2.4-5.18z"/><path d="m34.22 50.76-1.82-5.52a20.22 20.22 0 1 0 -12.88-.05l-1.87 5.5a26 26 0 1 1 16.57.07z"/><path d="m26.11 51.75-.17-32.14"/><path d="m22.99 19.61h6.08v32.14h-6.08z" transform="matrix(.9999844 -.00558502 .00558502 .9999844 -.2 .14)"/><path d="m22.99 19.61h6.07l-3.04-3.45z"/><path d="m20.18 51.42v-29.88l-5.18 5.79v22.1a17.49 17.49 0 0 0 2.57 1.25 20.71 20.71 0 0 0 2.61.74z"/><path d="m31.78 51.48v-29.89l5.13 5.8v22.09a17.19 17.19 0 0 1 -2.57 1.26 23.05 23.05 0 0 1 -2.56.74z"/></g></svg>